<?xml version="1.0" encoding="UTF-8"?><svg xmlns="http://www.w3.org/2000/svg" xmlns:xlink="http://www.w3.org/1999/xlink" contentScriptType="text/ecmascript" width="375" zoomAndPan="magnify" contentStyleType="text/css" viewBox="0 0 375 187.499995" height="187.499995" preserveAspectRatio="xMidYMid meet" version="1.0"><defs><clipPath id="clip-0"><path d="M 0.5 2.335938 L 221 2.335938 L 221 184.851562 L 0.5 184.851562 Z M 0.5 2.335938 " clip-rule="nonzero"/></clipPath><clipPath id="clip-1"><path d="M 125 2.335938 L 374.5 2.335938 L 374.5 184.851562 L 125 184.851562 Z M 125 2.335938 " clip-rule="nonzero"/></clipPath><clipPath id="clip-2"><path d="M 111 2.335938 L 333 2.335938 L 333 162 L 111 162 Z M 111 2.335938 " clip-rule="nonzero"/></clipPath><clipPath id="clip-3"><path d="M 27 107 L 106 107 L 106 184.851562 L 27 184.851562 Z M 27 107 " clip-rule="nonzero"/></clipPath><clipPath id="clip-4"><path d="M 260 107 L 339 107 L 339 184.851562 L 260 184.851562 Z M 260 107 " clip-rule="nonzero"/></clipPath></defs><g clip-path="url(#clip-0)"><path stroke-linecap="round" transform="matrix(8.641056, 0, 0, 8.649919, -15.564822, -109.246433)" fill="none" stroke-linejoin="miter" d="M 15.999923 24.001801 C 15.999923 21.001863 14.999973 19.002205 14.999973 19.002205 C 13.000072 15.001987 10.000222 14.002158 10.000222 14.002158 " stroke="rgb(27.059937%, 35.289001%, 39.219666%)" stroke-width="2" stroke-opacity="1" stroke-miterlimit="4"/></g><g clip-path="url(#clip-1)"><path stroke-linecap="butt" transform="matrix(8.641056, 0, 0, 8.649919, -15.564822, -109.246433)" fill="none" stroke-linejoin="miter" d="M 37.583837 23.50008 L 27.667062 17.500204 " stroke="rgb(32.939148%, 43.139648%, 47.839355%)" stroke-width="2" stroke-opacity="1" stroke-miterlimit="4"/></g><path fill="rgb(1.959229%, 68.629456%, 90.979004%)" d="M 364.640625 115.644531 C 364.640625 115.644531 347.359375 72.417969 286.871094 55.121094 C 286.871094 55.121094 243.667969 132.96875 148.617188 89.703125 C 148.46875 89.632812 148.355469 89.597656 148.21875 89.527344 C 130.320312 63.535156 100.457031 46.453125 66.523438 46.453125 C 49.734375 46.453125 33.957031 50.664062 20.121094 58.058594 C 13.511719 61.589844 1.71875 78.179688 1.71875 141.601562 L 347.359375 141.601562 C 356.898438 141.601562 364.640625 133.851562 364.640625 124.300781 Z M 364.640625 115.644531 " fill-opacity="1" fill-rule="nonzero"/><g clip-path="url(#clip-2)"><path stroke-linecap="round" transform="matrix(8.641056, 0, 0, 8.649919, -15.564822, -109.246433)" fill="none" stroke-linejoin="miter" d="M 25.999876 19.999776 L 29.000179 15.00018 " stroke="rgb(100%, 23.919678%, 0%)" stroke-width="2" stroke-opacity="1" stroke-miterlimit="4"/></g><path fill="rgb(21.569824%, 27.839661%, 30.979919%)" d="M 304.152344 115.652344 L 373.28125 115.652344 L 373.28125 150.25 L 304.152344 150.25 Z M 304.152344 115.652344 " fill-opacity="1" fill-rule="nonzero"/><path fill="rgb(21.569824%, 27.839661%, 30.979919%)" d="M 105.410156 132.953125 L 364.640625 132.953125 L 364.640625 150.25 L 105.410156 150.25 Z M 105.410156 132.953125 " fill-opacity="1" fill-rule="nonzero"/><path fill="rgb(21.569824%, 27.839661%, 30.979919%)" d="M 131.117188 150.25 C 131.210938 148.816406 131.332031 147.386719 131.332031 145.925781 C 131.332031 110.105469 102.316406 81.050781 66.523438 81.050781 C 30.734375 81.050781 1.71875 110.105469 1.71875 145.925781 C 1.71875 147.386719 1.839844 148.816406 1.933594 150.25 Z M 131.117188 150.25 " fill-opacity="1" fill-rule="nonzero"/><path fill="rgb(21.569824%, 27.839661%, 30.979919%)" d="M 355.785156 150.25 C 355.886719 148.816406 356 147.386719 356 145.925781 C 356 114.871094 330.855469 89.703125 299.832031 89.703125 C 268.8125 89.703125 243.667969 114.871094 243.667969 145.925781 C 243.667969 147.386719 243.777344 148.816406 243.882812 150.25 Z M 355.785156 150.25 " fill-opacity="1" fill-rule="nonzero"/><path fill="rgb(21.569824%, 27.839661%, 30.979919%)" d="M 84.964844 30.777344 C 78.941406 29.800781 72.824219 29.152344 66.523438 29.152344 C 27.640625 29.152344 14.617188 63.457031 14.617188 63.457031 C 14.617188 63.457031 34.390625 46.453125 66.523438 46.453125 C 79.617188 46.453125 92.058594 49.089844 103.484375 53.699219 C 97.53125 43.304688 90.882812 35.925781 84.964844 30.777344 Z M 84.964844 30.777344 " fill-opacity="1" fill-rule="nonzero"/><g clip-path="url(#clip-3)"><path fill="rgb(32.939148%, 43.139648%, 47.839355%)" d="M 105.410156 145.925781 C 105.410156 147.199219 105.347656 148.472656 105.222656 149.742188 C 105.097656 151.011719 104.910156 152.269531 104.664062 153.519531 C 104.414062 154.769531 104.105469 156.003906 103.734375 157.226562 C 103.367188 158.445312 102.9375 159.644531 102.449219 160.820312 C 101.960938 162 101.417969 163.152344 100.820312 164.273438 C 100.21875 165.398438 99.5625 166.492188 98.855469 167.550781 C 98.148438 168.613281 97.390625 169.632812 96.582031 170.621094 C 95.777344 171.605469 94.921875 172.546875 94.019531 173.449219 C 93.121094 174.351562 92.179688 175.207031 91.195312 176.015625 C 90.207031 176.824219 89.1875 177.582031 88.128906 178.289062 C 87.070312 179 85.976562 179.652344 84.855469 180.253906 C 83.730469 180.855469 82.582031 181.398438 81.40625 181.886719 C 80.230469 182.375 79.03125 182.804688 77.8125 183.175781 C 76.59375 183.542969 75.359375 183.855469 74.109375 184.101562 C 72.863281 184.351562 71.605469 184.539062 70.335938 184.664062 C 69.070312 184.789062 67.796875 184.851562 66.523438 184.851562 C 65.25 184.851562 63.980469 184.789062 62.714844 184.664062 C 61.445312 184.539062 60.1875 184.351562 58.9375 184.101562 C 57.691406 183.855469 56.457031 183.542969 55.238281 183.175781 C 54.019531 182.804688 52.820312 182.375 51.644531 181.886719 C 50.46875 181.398438 49.316406 180.855469 48.195312 180.253906 C 47.070312 179.652344 45.980469 179 44.921875 178.289062 C 43.863281 177.582031 42.839844 176.824219 41.855469 176.015625 C 40.871094 175.207031 39.929688 174.351562 39.03125 173.449219 C 38.128906 172.546875 37.273438 171.605469 36.46875 170.621094 C 35.660156 169.632812 34.902344 168.613281 34.195312 167.550781 C 33.484375 166.492188 32.832031 165.398438 32.230469 164.273438 C 31.632812 163.152344 31.085938 162 30.601562 160.820312 C 30.113281 159.644531 29.683594 158.445312 29.316406 157.226562 C 28.945312 156.003906 28.636719 154.769531 28.386719 153.519531 C 28.140625 152.269531 27.953125 151.011719 27.828125 149.742188 C 27.703125 148.472656 27.640625 147.199219 27.640625 145.925781 C 27.640625 144.652344 27.703125 143.378906 27.828125 142.109375 C 27.953125 140.84375 28.140625 139.582031 28.386719 138.332031 C 28.636719 137.082031 28.945312 135.847656 29.316406 134.625 C 29.683594 133.40625 30.113281 132.207031 30.601562 131.03125 C 31.085938 129.851562 31.632812 128.703125 32.230469 127.578125 C 32.832031 126.453125 33.484375 125.359375 34.195312 124.300781 C 34.902344 123.242188 35.660156 122.21875 36.46875 121.234375 C 37.273438 120.246094 38.128906 119.304688 39.03125 118.402344 C 39.929688 117.5 40.871094 116.644531 41.855469 115.835938 C 42.839844 115.027344 43.863281 114.269531 44.921875 113.5625 C 45.980469 112.851562 47.070312 112.199219 48.195312 111.597656 C 49.316406 110.996094 50.46875 110.453125 51.644531 109.964844 C 52.820312 109.476562 54.019531 109.046875 55.238281 108.675781 C 56.457031 108.308594 57.691406 108 58.9375 107.75 C 60.1875 107.5 61.445312 107.3125 62.714844 107.1875 C 63.980469 107.0625 65.25 107 66.523438 107 C 67.796875 107 69.070312 107.0625 70.335938 107.1875 C 71.605469 107.3125 72.863281 107.5 74.109375 107.75 C 75.359375 108 76.59375 108.308594 77.8125 108.675781 C 79.03125 109.046875 80.230469 109.476562 81.40625 109.964844 C 82.582031 110.453125 83.730469 110.996094 84.855469 111.597656 C 85.976562 112.199219 87.070312 112.851562 88.128906 113.5625 C 89.1875 114.269531 90.210938 115.027344 91.195312 115.835938 C 92.179688 116.644531 93.121094 117.5 94.019531 118.402344 C 94.921875 119.304688 95.777344 120.246094 96.582031 121.234375 C 97.390625 122.21875 98.148438 123.242188 98.855469 124.300781 C 99.5625 125.359375 100.21875 126.453125 100.820312 127.578125 C 101.417969 128.703125 101.960938 129.851562 102.449219 131.03125 C 102.9375 132.207031 103.367188 133.40625 103.734375 134.625 C 104.105469 135.847656 104.414062 137.082031 104.664062 138.332031 C 104.910156 139.582031 105.097656 140.84375 105.222656 142.109375 C 105.347656 143.378906 105.410156 144.652344 105.410156 145.925781 Z M 105.410156 145.925781 " fill-opacity="1" fill-rule="nonzero"/></g><g clip-path="url(#clip-4)"><path fill="rgb(32.939148%, 43.139648%, 47.839355%)" d="M 338.71875 145.925781 C 338.71875 147.199219 338.65625 148.472656 338.53125 149.742188 C 338.40625 151.011719 338.21875 152.269531 337.972656 153.519531 C 337.722656 154.769531 337.414062 156.003906 337.042969 157.226562 C 336.675781 158.445312 336.246094 159.644531 335.757812 160.820312 C 335.269531 162 334.726562 163.152344 334.125 164.273438 C 333.527344 165.398438 332.871094 166.492188 332.164062 167.550781 C 331.457031 168.613281 330.699219 169.632812 329.890625 170.621094 C 329.085938 171.605469 328.230469 172.546875 327.328125 173.449219 C 326.429688 174.351562 325.488281 175.207031 324.5 176.015625 C 323.515625 176.824219 322.496094 177.582031 321.4375 178.289062 C 320.378906 179 319.285156 179.652344 318.164062 180.253906 C 317.039062 180.855469 315.890625 181.398438 314.714844 181.886719 C 313.539062 182.375 312.339844 182.804688 311.121094 183.175781 C 309.902344 183.542969 308.667969 183.855469 307.417969 184.101562 C 306.171875 184.351562 304.914062 184.539062 303.644531 184.664062 C 302.378906 184.789062 301.105469 184.851562 299.832031 184.851562 C 298.558594 184.851562 297.289062 184.789062 296.023438 184.664062 C 294.753906 184.539062 293.496094 184.351562 292.246094 184.101562 C 291 183.855469 289.765625 183.542969 288.546875 183.175781 C 287.328125 182.804688 286.128906 182.375 284.953125 181.886719 C 283.777344 181.398438 282.625 180.855469 281.503906 180.253906 C 280.378906 179.652344 279.289062 179 278.230469 178.289062 C 277.171875 177.582031 276.148438 176.824219 275.164062 176.015625 C 274.179688 175.207031 273.238281 174.351562 272.339844 173.449219 C 271.4375 172.546875 270.582031 171.605469 269.777344 170.621094 C 268.96875 169.632812 268.210938 168.613281 267.503906 167.550781 C 266.792969 166.492188 266.140625 165.398438 265.539062 164.273438 C 264.941406 163.152344 264.394531 162 263.910156 160.820312 C 263.421875 159.644531 262.992188 158.445312 262.625 157.226562 C 262.253906 156.003906 261.945312 154.769531 261.695312 153.519531 C 261.449219 152.269531 261.261719 151.011719 261.136719 149.742188 C 261.011719 148.472656 260.949219 147.199219 260.949219 145.925781 C 260.949219 144.652344 261.011719 143.378906 261.136719 142.109375 C 261.261719 140.84375 261.449219 139.582031 261.695312 138.332031 C 261.945312 137.082031 262.253906 135.847656 262.625 134.625 C 262.992188 133.40625 263.421875 132.207031 263.910156 131.03125 C 264.394531 129.851562 264.941406 128.703125 265.539062 127.578125 C 266.140625 126.453125 266.792969 125.359375 267.503906 124.300781 C 268.210938 123.242188 268.96875 122.21875 269.777344 121.234375 C 270.582031 120.246094 271.4375 119.304688 272.339844 118.402344 C 273.238281 117.5 274.179688 116.644531 275.164062 115.835938 C 276.148438 115.027344 277.171875 114.269531 278.230469 113.5625 C 279.289062 112.851562 280.378906 112.199219 281.503906 111.597656 C 282.625 110.996094 283.777344 110.453125 284.953125 109.964844 C 286.128906 109.476562 287.328125 109.046875 288.546875 108.675781 C 289.765625 108.308594 291 108 292.246094 107.75 C 293.496094 107.5 294.753906 107.3125 296.023438 107.1875 C 297.289062 107.0625 298.558594 107 299.832031 107 C 301.105469 107 302.378906 107.0625 303.644531 107.1875 C 304.914062 107.3125 306.171875 107.5 307.417969 107.75 C 308.667969 108 309.902344 108.308594 311.121094 108.675781 C 312.339844 109.046875 313.539062 109.476562 314.714844 109.964844 C 315.890625 110.453125 317.039062 110.996094 318.164062 111.597656 C 319.285156 112.199219 320.378906 112.851562 321.4375 113.5625 C 322.496094 114.269531 323.515625 115.027344 324.5 115.835938 C 325.488281 116.644531 326.429688 117.5 327.328125 118.402344 C 328.230469 119.304688 329.085938 120.246094 329.890625 121.234375 C 330.699219 122.21875 331.457031 123.242188 332.164062 124.300781 C 332.871094 125.359375 333.527344 126.453125 334.128906 127.578125 C 334.726562 128.703125 335.269531 129.851562 335.757812 131.03125 C 336.246094 132.207031 336.675781 133.40625 337.042969 134.625 C 337.414062 135.847656 337.722656 137.082031 337.972656 138.332031 C 338.21875 139.582031 338.40625 140.84375 338.53125 142.109375 C 338.65625 143.378906 338.71875 144.652344 338.71875 145.925781 Z M 338.71875 145.925781 " fill-opacity="1" fill-rule="nonzero"/></g><path fill="rgb(69.018555%, 74.508667%, 77.249146%)" d="M 88.128906 145.925781 C 88.128906 146.632812 88.09375 147.339844 88.023438 148.046875 C 87.953125 148.75 87.851562 149.449219 87.710938 150.144531 C 87.574219 150.839844 87.402344 151.527344 87.199219 152.203125 C 86.992188 152.882812 86.753906 153.546875 86.484375 154.203125 C 86.210938 154.855469 85.910156 155.496094 85.578125 156.121094 C 85.242188 156.746094 84.878906 157.351562 84.488281 157.941406 C 84.09375 158.527344 83.671875 159.097656 83.222656 159.644531 C 82.777344 160.191406 82.300781 160.714844 81.800781 161.21875 C 81.300781 161.71875 80.777344 162.191406 80.230469 162.640625 C 79.683594 163.089844 79.117188 163.511719 78.527344 163.90625 C 77.9375 164.300781 77.332031 164.664062 76.707031 164.996094 C 76.085938 165.332031 75.445312 165.632812 74.792969 165.90625 C 74.136719 166.175781 73.472656 166.414062 72.796875 166.621094 C 72.117188 166.824219 71.433594 166.996094 70.738281 167.136719 C 70.046875 167.273438 69.347656 167.378906 68.644531 167.445312 C 67.9375 167.515625 67.234375 167.550781 66.523438 167.550781 C 65.816406 167.550781 65.113281 167.515625 64.40625 167.445312 C 63.703125 167.378906 63.003906 167.273438 62.3125 167.136719 C 61.617188 166.996094 60.929688 166.824219 60.253906 166.621094 C 59.578125 166.414062 58.910156 166.175781 58.257812 165.90625 C 57.605469 165.632812 56.964844 165.332031 56.339844 164.996094 C 55.71875 164.664062 55.113281 164.300781 54.523438 163.90625 C 53.933594 163.511719 53.367188 163.089844 52.820312 162.640625 C 52.273438 162.191406 51.75 161.71875 51.25 161.21875 C 50.75 160.714844 50.273438 160.191406 49.824219 159.644531 C 49.378906 159.097656 48.957031 158.527344 48.5625 157.941406 C 48.171875 157.351562 47.808594 156.746094 47.472656 156.121094 C 47.140625 155.496094 46.835938 154.855469 46.566406 154.203125 C 46.296875 153.546875 46.058594 152.882812 45.851562 152.203125 C 45.648438 151.527344 45.476562 150.839844 45.335938 150.144531 C 45.199219 149.449219 45.097656 148.75 45.027344 148.046875 C 44.957031 147.339844 44.921875 146.632812 44.921875 145.925781 C 44.921875 145.21875 44.957031 144.511719 45.027344 143.804688 C 45.097656 143.101562 45.199219 142.402344 45.335938 141.707031 C 45.476562 141.011719 45.648438 140.328125 45.851562 139.648438 C 46.058594 138.972656 46.296875 138.304688 46.566406 137.652344 C 46.835938 136.996094 47.140625 136.355469 47.472656 135.730469 C 47.808594 135.109375 48.171875 134.5 48.5625 133.910156 C 48.957031 133.324219 49.378906 132.753906 49.824219 132.207031 C 50.273438 131.660156 50.75 131.136719 51.25 130.636719 C 51.75 130.132812 52.273438 129.660156 52.820312 129.210938 C 53.367188 128.761719 53.933594 128.339844 54.523438 127.945312 C 55.113281 127.550781 55.71875 127.1875 56.339844 126.855469 C 56.964844 126.519531 57.605469 126.21875 58.257812 125.949219 C 58.910156 125.675781 59.578125 125.4375 60.253906 125.234375 C 60.929688 125.027344 61.617188 124.855469 62.3125 124.71875 C 63.003906 124.578125 63.703125 124.476562 64.40625 124.40625 C 65.113281 124.335938 65.816406 124.300781 66.523438 124.300781 C 67.234375 124.300781 67.9375 124.335938 68.644531 124.40625 C 69.347656 124.476562 70.046875 124.578125 70.738281 124.71875 C 71.433594 124.855469 72.117188 125.027344 72.796875 125.234375 C 73.472656 125.4375 74.136719 125.675781 74.792969 125.949219 C 75.445312 126.21875 76.085938 126.519531 76.707031 126.855469 C 77.332031 127.1875 77.9375 127.550781 78.527344 127.945312 C 79.117188 128.339844 79.683594 128.761719 80.230469 129.210938 C 80.777344 129.660156 81.300781 130.132812 81.800781 130.636719 C 82.300781 131.136719 82.777344 131.660156 83.222656 132.207031 C 83.671875 132.753906 84.09375 133.324219 84.488281 133.910156 C 84.878906 134.5 85.242188 135.109375 85.578125 135.730469 C 85.910156 136.355469 86.210938 136.996094 86.484375 137.652344 C 86.753906 138.304688 86.992188 138.972656 87.199219 139.648438 C 87.402344 140.328125 87.574219 141.011719 87.710938 141.707031 C 87.851562 142.402344 87.953125 143.101562 88.023438 143.804688 C 88.09375 144.511719 88.128906 145.21875 88.128906 145.925781 Z M 88.128906 145.925781 " fill-opacity="1" fill-rule="nonzero"/><path fill="rgb(69.018555%, 74.508667%, 77.249146%)" d="M 321.4375 145.925781 C 321.4375 146.632812 321.402344 147.339844 321.332031 148.046875 C 321.261719 148.75 321.160156 149.449219 321.019531 150.144531 C 320.882812 150.839844 320.710938 151.527344 320.507812 152.203125 C 320.300781 152.882812 320.0625 153.546875 319.792969 154.203125 C 319.519531 154.855469 319.21875 155.496094 318.886719 156.121094 C 318.550781 156.746094 318.1875 157.351562 317.796875 157.941406 C 317.402344 158.527344 316.980469 159.097656 316.53125 159.644531 C 316.082031 160.191406 315.609375 160.714844 315.109375 161.21875 C 314.609375 161.71875 314.085938 162.191406 313.539062 162.640625 C 312.992188 163.089844 312.421875 163.511719 311.835938 163.90625 C 311.246094 164.300781 310.640625 164.664062 310.015625 164.996094 C 309.394531 165.332031 308.753906 165.632812 308.101562 165.90625 C 307.445312 166.175781 306.78125 166.414062 306.105469 166.621094 C 305.425781 166.824219 304.742188 166.996094 304.046875 167.136719 C 303.355469 167.273438 302.65625 167.378906 301.949219 167.445312 C 301.246094 167.515625 300.542969 167.550781 299.832031 167.550781 C 299.125 167.550781 298.421875 167.515625 297.714844 167.445312 C 297.011719 167.378906 296.3125 167.273438 295.621094 167.136719 C 294.925781 166.996094 294.238281 166.824219 293.5625 166.621094 C 292.886719 166.414062 292.21875 166.175781 291.566406 165.90625 C 290.914062 165.632812 290.273438 165.332031 289.648438 164.996094 C 289.027344 164.664062 288.421875 164.300781 287.832031 163.90625 C 287.242188 163.511719 286.675781 163.089844 286.128906 162.640625 C 285.582031 162.191406 285.058594 161.71875 284.558594 161.21875 C 284.058594 160.714844 283.582031 160.191406 283.132812 159.644531 C 282.6875 159.097656 282.265625 158.527344 281.871094 157.941406 C 281.480469 157.351562 281.117188 156.746094 280.78125 156.121094 C 280.449219 155.496094 280.144531 154.855469 279.875 154.203125 C 279.605469 153.546875 279.367188 152.882812 279.160156 152.203125 C 278.957031 151.527344 278.785156 150.839844 278.644531 150.144531 C 278.507812 149.449219 278.40625 148.75 278.335938 148.046875 C 278.265625 147.339844 278.230469 146.632812 278.230469 145.925781 C 278.230469 145.21875 278.265625 144.511719 278.335938 143.804688 C 278.40625 143.101562 278.507812 142.402344 278.644531 141.707031 C 278.785156 141.011719 278.957031 140.328125 279.160156 139.648438 C 279.367188 138.972656 279.605469 138.304688 279.875 137.652344 C 280.144531 136.996094 280.449219 136.355469 280.78125 135.730469 C 281.117188 135.109375 281.480469 134.5 281.871094 133.910156 C 282.265625 133.324219 282.6875 132.753906 283.132812 132.207031 C 283.582031 131.660156 284.058594 131.136719 284.558594 130.636719 C 285.058594 130.132812 285.582031 129.660156 286.128906 129.210938 C 286.675781 128.761719 287.242188 128.339844 287.832031 127.945312 C 288.421875 127.550781 289.027344 127.1875 289.648438 126.855469 C 290.273438 126.519531 290.914062 126.21875 291.566406 125.949219 C 292.21875 125.675781 292.886719 125.4375 293.5625 125.234375 C 294.238281 125.027344 294.925781 124.855469 295.621094 124.71875 C 296.3125 124.578125 297.011719 124.476562 297.714844 124.40625 C 298.421875 124.335938 299.125 124.300781 299.832031 124.300781 C 300.542969 124.300781 301.246094 124.335938 301.949219 124.40625 C 302.65625 124.476562 303.355469 124.578125 304.046875 124.71875 C 304.742188 124.855469 305.425781 125.027344 306.105469 125.234375 C 306.78125 125.4375 307.445312 125.675781 308.101562 125.949219 C 308.753906 126.21875 309.394531 126.519531 310.015625 126.855469 C 310.640625 127.1875 311.246094 127.550781 311.835938 127.945312 C 312.421875 128.339844 312.992188 128.761719 313.539062 129.210938 C 314.085938 129.660156 314.609375 130.132812 315.109375 130.636719 C 315.609375 131.136719 316.082031 131.660156 316.53125 132.207031 C 316.980469 132.753906 317.402344 133.324219 317.796875 133.910156 C 318.1875 134.5 318.550781 135.109375 318.886719 135.730469 C 319.21875 136.355469 319.519531 136.996094 319.792969 137.652344 C 320.0625 138.304688 320.300781 138.972656 320.507812 139.648438 C 320.710938 140.328125 320.882812 141.011719 321.019531 141.707031 C 321.160156 142.402344 321.261719 143.101562 321.332031 143.804688 C 321.402344 144.511719 321.4375 145.21875 321.4375 145.925781 Z M 321.4375 145.925781 " fill-opacity="1" fill-rule="nonzero"/></svg>